/* XPM */
static char *result[] = {
/* columns rows colors chars-per-pixel */
"64 64 244 2 ",
"   c #393C3B",
".  c #3C2B29",
"X  c #351C1B",
"o  c #5D1D14",
"O  c #5D1A19",
"+  c #5E1311",
"@  c #5C120F",
"#  c #65190E",
"$  c #67170B",
"%  c #621E15",
"&  c #631D1A",
"*  c #691C15",
"=  c #761D12",
"-  c #5D231B",
";  c #5C231A",
":  c #652117",
">  c #6A2217",
",  c #652319",
"<  c #6C2419",
"1  c #6D291D",
"2  c #65281A",
"3  c #732216",
"4  c #7B2315",
"5  c #73261A",
"6  c #7A261A",
"7  c #74291D",
"8  c #7B2A1D",
"9  c #782817",
"0  c #793715",
"q  c #7D320C",
"w  c #4A2C27",
"e  c #572B24",
"r  c #5A332E",
"t  c #473937",
"y  c #583935",
"u  c #4B322F",
"i  c #632A22",
"p  c #6C2D22",
"a  c #6F2520",
"s  c #742C22",
"d  c #7B2C21",
"f  c #762623",
"g  c #693428",
"h  c #743224",
"j  c #7D3223",
"k  c #79362A",
"l  c #683B33",
"z  c #7B3C33",
"x  c #7A3B38",
"c  c #661921",
"v  c #59433E",
"b  c #7B463C",
"n  c #744132",
"m  c #1C5459",
"M  c #2A4B4D",
"N  c #364948",
"B  c #2C4F51",
"V  c #2A5557",
"C  c #365754",
"Z  c #354F53",
"A  c #135D63",
"S  c #215F62",
"D  c #046D7A",
"F  c #18787D",
"G  c #1A696F",
"H  c #27686B",
"J  c #376669",
"K  c #257579",
"L  c #327070",
"P  c #366056",
"I  c #4C514F",
"U  c #78534D",
"Y  c #7A5C58",
"T  c #685350",
"R  c #486655",
"E  c #6F615F",
"W  c #54706D",
"Q  c #756F6A",
"!  c #831E11",
"~  c #831A0B",
"^  c #852415",
"/  c #83271C",
"(  c #832C1E",
")  c #8B2E1E",
"_  c #872714",
"`  c #922E1D",
"'  c #972A18",
"]  c #8D311F",
"[  c #873919",
"{  c #93311F",
"}  c #9B321E",
"|  c #943719",
" . c #9B3F0D",
".. c #A8361B",
"X. c #B63819",
"o. c #AD2E12",
"O. c #832D21",
"+. c #8B2E20",
"@. c #812722",
"#. c #922F20",
"$. c #833122",
"%. c #8C3121",
"&. c #853A28",
"*. c #933221",
"=. c #9B3321",
"-. c #973A26",
";. c #A33622",
":. c #A73B22",
">. c #C53410",
",. c #C63F25",
"<. c #96550A",
"1. c #8B4716",
"2. c #9C4C14",
"3. c #984517",
"4. c #9C5612",
"5. c #954808",
"6. c #A3580D",
"7. c #A44A1A",
"8. c #AC5B12",
"9. c #A75516",
"0. c #B35B13",
"q. c #B34911",
"w. c #A8640B",
"e. c #BB6A0B",
"r. c #B8730A",
"t. c #B86513",
"y. c #AA6611",
"u. c #9A4925",
"i. c #8A4437",
"p. c #8E513E",
"a. c #9D5C34",
"s. c #8C4634",
"d. c #A84926",
"f. c #B84825",
"g. c #A55729",
"h. c #BE5424",
"j. c #A9732C",
"k. c #9A6F36",
"l. c #D65718",
"z. c #CF4B11",
"x. c #E35A14",
"c. c #C66907",
"v. c #C57708",
"b. c #D77906",
"n. c #CA6919",
"m. c #CB7315",
"M. c #D66A19",
"N. c #FF7114",
"B. c #EF7B1A",
"V. c #CA4625",
"C. c #CF722B",
"Z. c #F27426",
"A. c #854D45",
"S. c #85534A",
"D. c #855C56",
"F. c #964E43",
"G. c #916A4F",
"H. c #A56B55",
"J. c #876B68",
"K. c #887977",
"L. c #977D70",
"P. c #A87E75",
"I. c #D57348",
"U. c #4A827F",
"Y. c #72857C",
"T. c #5DC951",
"R. c #938237",
"E. c #D78608",
"W. c #CC8507",
"Q. c #E98B12",
"!. c #D48525",
"~. c #F28E2B",
"^. c #FFB12E",
"/. c #978A62",
"(. c #E4E369",
"). c #267E84",
"_. c #5245E2",
"`. c #19848B",
"'. c #258285",
"]. c #288185",
"[. c #28898C",
"{. c #328789",
"}. c #33898B",
"|. c #338486",
" X c #288D91",
".X c #368F91",
"XX c #398F92",
"oX c #3A9394",
"OX c #389798",
"+X c #299699",
"@X c #389FA3",
"#X c #3AA7A7",
"$X c #2EB0B0",
"%X c #2DA29E",
"&X c #42A9A6",
"*X c #43ACAA",
"=X c #44A7A6",
"-X c #5AA9A9",
";X c #45B2AE",
":X c #46B9B5",
">X c #58BBB8",
",X c #6DB0AD",
"<X c #5A8E8D",
"1X c #4BC4BF",
"2X c #7FC0B9",
"3X c #3BC8C5",
"4X c #49C8C4",
"5X c #55CCC7",
"6X c #4ED2CC",
"7X c #57D4CB",
"8X c #4BD9D6",
"9X c #7CC6C2",
"0X c #64D6CF",
"qX c #65D3CE",
"wX c #57E3D6",
"eX c #4DEBDB",
"rX c #69E6DC",
"tX c #78E2DB",
"yX c #68EAE2",
"uX c #79EAE1",
"iX c #6AFFF4",
"pX c #988986",
"aX c #8D918E",
"sX c #A6928B",
"dX c #95A29E",
"fX c #8D99A1",
"gX c #ADB6BB",
"hX c #B0A298",
"jX c #C29D91",
"kX c #B1C3BA",
"lX c #C6C3B9",
"zX c #93D5CF",
"xX c #ACD9D3",
"cX c #8DE2D8",
"vX c #9AF9E9",
"bX c #90F4E9",
"nX c #A9F6EA",
"mX c #ADF7ED",
"MX c #AFE0D7",
"NX c #D8D6CD",
"BX c #C9E6DB",
"VX c #FEE2D7",
"CX c #C3F9EC",
"ZX c #CCE6E1",
/* pixels */
"- n :.%.s p $.$.) %.s 1 s %.=.%.1 $.s h O.) :...$.p O.%.d 1 ^ K.dX> 5 -.V.,.=.$.h $.V.f.%.a 1 h ] ] ) 1 i j h { %.h g =.=.j e < ",
"D.hX%.d $.;.=.%.l d ' s j j j h h $.$.] s g %.| j -.j g j j   Q jXN a d +.z ;.;...=.k ' s $.$.$.$.h $.( h ] ) e 6 *.=.*.O.k L./.",
",XzXS.8 O.%.' fXkX$ W t 6 8 8 { %.$...b > W U 9 ;.X.v W 9 v 1XY T >XH.>.U Q s d ( l W k s.=.=.*.{ s 7 9 l J 1 aXjX` X.h ` k >XNX",
"%XzX$.; O & I xXsXL =X- < 1 1 2 < 1 * #XI Y.E # O.l e 9XT X xXoXD kXv , -XL.. u : ; -XT -X2 , 2 2 2 2 2 : |.OXE mXW = * w c ).zX",
"D |.Z }.H F ).+XF #XC 8 $.%.] h p s 9 I ,X:XL <Xe zXJ -X=Xm OXK A OXL D zXW ,XR U.J -X1XR 6 p } *.%.] h ' y +XF +X`.K V #XH K  X",
"rX:X4XyXyXMXZXtX8X=XN < $.$.p ] $.i j o.V 3XMXVX=XlXMX$X4XwX8X0XcX3XrX7X%XzXNX%XBXCX$XJ ' j s =.*.$.s =.%.r '.8X0XBXBXuXuX7X4X4X",
"nX0X4XyXyXtXnXbX6X#XN ) =.;.%.h %.j O.s S iXbXvXZXxXnX7X5X0XvXmXmXnXtX5X7XvXbXxXmXbXiXL / s s ..-.{ ] h ( t '.6XtXnXtXuXrX5X5XuX",
"wX4X:X6X5X4X3X5X4X#XN , 2 2 1 , - 2 a c V 8X6XeX5X5XyX4X:X5XyX0X7XyX1X:X1XwX5XqXeX7XwXL * 1 2 2 , 1 2 - 1 w F 3X4X6X4X4X7X4X:X5X",
";X=X@X*X*X&X*X*X#XOXN / ) ) 7 8 ) ) { / B $X;X;X#X*X:X&X&X*X:X;X;X1X&X&X&X:X;X=X;X;X#XJ ) ] ( ( / ) 8 < ) r K #X=X=X*X*X*X=X#X*X",
"oXoX.X.XoXoXXXoXXX+XG < ) ( 8 *.%.8 ( 8 v }..XoXoXOXoX.XoXXXOXOXOXOX.XoX.XOXOX.XOXOX[.I } ( 8 ( O.) s #.' B `.oXOXXXXXOX.XXXoXoX",
"{..XoX}.}.}..X}.).  w , 5 < 7 ( 7 < < 1 4   H V K {.}..XoX|.{.}.}.{.|.oX}.}.{.K V H   3 8 < 5 < 5 5 5 7 6 2 . H '.}.}.{.}.}.XX|.",
"|.|.].|.{.}. XS w ^ = 5 5 6 8 < 5 5 8 5 5 5 ^ = m [.}.}.}.|.}.|.}.}.{.{.}.}. Xm > 3 _ 8 < , : 5 9 8 6 6 5 5 9 2 M [..X.X{.}.|.{.",
"].'.[.[.H N V e 6 7 ( 8 ] ) < 8 9 ( $.) d 8 $.) g N H K ).).].].].].].].'.H N r 8 8 %.) ( O.( 8 d 8 8 ( 8 8 $.8 9 M M S '.).).).",
"P R C V   = 9 ( ( 5 6 9 ) 8 7 ( 8 8 ) 8 7 ) 8 5 | ' t V B B Z C P B B B V r ~ _ ( ( 7 9 ) { ` ` ( 5 1 < 6 9 6 5 7 4 ! u B C C R ",
"5.v.@ $ + : % ; : ; ; % o ; : : & & : % : % : : : > % @ # % + <.c.[ $ # o : ; ; : ; % % ; % o ; ; % & o % o o & : : & * # @ <.w.",
"3.c.d ) { ) < 8 ' ` 8 5 6 ] } 8 7 8 8 ) ) { 8 1 9 ( ] ] %.8 8 t.E.w.) ) 5 7 } { 7 8 | ` ( { { 8 ( ) ] 5 5 8 8 ] =./ < / 7 +.q.y.",
"7.9.@.O.+.5 %.*.O.8 ( 8 ( j 8 $.8 %.) 8 8 8 ( ( 8 8 8 8 d ) 8 7.v.{ O.%.{ ) +.*.{ O.8 8 8 $.( ) ( 8 8 $.d ( ) s O.%.*.1 8 d *.t.",
"[ 1.5 7 5 & ) ) 7 < 5 < < 5 5 / ( 8 ( 9 < 5 9 ) ( < < < < 5 3 <.8.[ 7 / / ( 5 < 5 < < < 9 5 5 6 9 3 < 5 5 < 5 < 9 / { < 9 < 9 3.",
"1.5.= a : < 9 5 < 3 > : > < < : : < < , , < , : : < 5 < : : O 4.v.0 & > ; : , o : : 5 3 , & > , , < > : , < : 5 2 , , : < * 1.6.",
"2.8.f *.*./ -.*.*.$.8 ( ( 7 7 8 8 ) { ] ) 7 d ) 8 d 8 8 8 8 s t.n.2.+.8 7 8 ) ) 8 7 %.%.7 5 +.*.*.%.j 5 ) %.8 O.#.=.*.O.=.d 3.6.",
"0.w.f +.) 7 ) 8 8 8 d 7 +.O.8 O.8 5 7 8 ) ( *.( ) ) ( 5 { { f 9.W.[ 7 8 ) ( ) { *.( 8 8 8 7 7 +.*.+.( 7 8 8 8 7 8 ( 8 9 #./ 2.2.",
"( [ * < > : > , , , > & & 9 3 : > , : < > 3 9 < < < , : , < & 4.y., : , , < > < 5 > , , , , , > > 3 3 , : , : : , : , & < < < 1.",
"4.W.7 5 o 5 6 9 9 < 7 6 6 5 5 9 6 8 9 5 5 5 < 5 5 9 ( 5 , 9 5 2.c.1.< 7 9 5 < < < < 6 6 < 9 6 < 5 5 < , 9 6 , 6 6 6 6 5 , < 4.W.",
"7.r.@.+.8 8 O.O.) %.%.( +.) 8 *.] ] ( d ) O.O.d d ] { O.5 ( d 8.E.9.d O.%.$.d 8 d 7 ( ) 8 ] ] %.) ) d 7 +.+.s +.*.] / 8 O.O.7.e.",
"[ 3.5 / ) > < 6 } { ) < 8 ) 5 { ] < 7 7 { } ) 7 { { ( < / } 7 9.t.d.#.{ ( ) 8 O.6 < ) } { 9 < 5 ( / 8 ` ) 6 8 { ` 5 < 5 / ( ) 7.",
"1.<.O , , : < : , , : > < > < : > > : > 5 < 5 < < * : : , , & 6.E.[ ; < < 5 * * < : > 5 5 : > , : % , : < < > < < < > , : 2 2 <.",
"t.t.*.O.( 7 d ) ] ] 8 7 7 O.) 8 8 7 ] 7 1 8 =.` / U 8 ] ( 5 s 0.t.3.a %.;.=.k z 8 d *.#.( 1 5 8 ( ) ) ( 8 1 8 ) ( d 8 8 ) 8 e.t.",
"( 3.d 8 8 *.{ ( 7 8 ( 8 ) 8 1 5 1 ( ] ] O.5 d 9 S.gX&.9 7 8 f 8.E.[ a s d 4 pXdX/ O.O./ 7 8 O.+.8 5 8 7 ) 8 ( 5 5 $.*.+.8 8 d 3.",
"7.v./ 8 7 5 ` 8 5 1 8 8 / ( 8 ( 8 8 ) ( 8 ( ` 6 i G.s < 5 3 5 0.v.| = d +.) -.A.} #.7 5 ) ) ` ) 8 5 1 5 8 9 8 < 7 ) { 7 7 7 c.n.",
"0 5.& o o % % * % ; o o o : % o o : o o o o o o _ q.> o o l , 6.v.[ y p * o ^  .i o % % o o o o : o o o o o o o & % o o o o 0 <.",
"8.v.O.) 6 7 O.O.( ) ( 5 7 ( ( 8 8 ) ) 8 1 7 ( ( B.^.z.6 4 fXi.c.r.9.sXF.* 5 Q.^.q.7 ) ) 6 5 5 ] ) ) 8 < ) ) 7 ) ( ( ( 7 ( f 6.m.",
"[ 0.d ) ` < 7 9 } *.( 1 ) 8 5 } ] 8 8 8 5 ) %.s 0.~.-.< 8 C.m.e.b.e.m.g.6 ) C.C.-.5 8 8 8 5 8 ) ) %.7 ] d ( ( *.} > 5 9 { 8 | r.",
"[ 3.< 5 ) : p n 9 9 5 5 8 7 5 7 7 9 7 5 6 8 7 * V.~.g.5 l.j.j.N.N.m.G.!.X.%.C.Z.%.+.8 5 5 < 5 < 5 7 9 9 8 6 6 3 O.A.* 5 ( 5 c [ ",
"4.r.< 5 < 5 J.gXA.3 5 < 5 7 8 5 5 5 5 5 5 < 5 < ( g.l.g.l.u.e.C./.M.9.f.n.a.z.u.) ) 7 5 5 7 7 < 6 8 6 7 < < < 7 K.gXz 5 < 5 w.r.",
"9.8.O.O.6 z fXgXJ.= ( 5 8 ( 5 5 7 7 7 ( / s 5 d 7 ; ..l.| - ' H.aXF.) 2 X.z.7 ; , < 7 6 O.( / s f d O.O.s 8 / k fXgXQ = O.O.3.8.",
"| t.O.6 8 < 9.g.a 3 8 8 ) ( 9 ( ( / ) ) 8 ( ) ( O.| ( &.s j / ` D.d ] g %.} 9 ( ( 8 ( / 6 d ( ) ( < < 5 8 5 / < &.!.%.9 8 d *.y.",
"r.r.& 2 * : e.W.0 * & * : : > > : < 2 > < , < < 5 < > o - e * i E O i e 2 < & < 5 < , , , > < < > > % % > > > O w.E.<.O < O y.W.",
"9.c.d ( 6 5 0.Q.7.@.8 < 8 ) } ( 7 ( 5 / ( ) 6 5 < 7 ) 6 > * 6 -.Q d _ / < 1 #.) 7 8 =.;.) 1 < 5 8 ) ( 5 < 6 / @.m.c.7.* = d 7.0.",
"A.g.! F.J.= 0.Q.8 s ) 7 O.8 ( O.d +.*.8 7 / ( ) ( ` ) 3 U Q 3 i.dX@.h <X&.( ` +.#.) s 8 ( 8 ] O.( 7 8 ) d O.O.a 0.c. .b pX! 3.a.",
"U b * S.J.9 r.b.5 < < < 5 5 < / 8 8 ( < 1 < 9 ( ) 8 5 % z A.> 1 k < s D.d ) < < < < < 1 9 < 6 7 6 5 < 5 9 5 5 , 6.E.3.x K.$ k Y ",
"a.k.w.&.0.Q.l.i.< 3 > , : , 5 % > > , 3 5 5 5 3 2 > 9 9 3 * 2 3 = 5 5 $ < < , 2 , , 9 5 < 9 9 < < < < > : : 5 < &.q.b.n.u.s.a.a.",
"b.Q.j.R.M.l.s.d ) ] ( 9 8 ) ) 8 7 ( 7 ) ) ( %.( 8 ( ] ] ) 1 8 ] +.O.) $.) ) ( ( 8 8 ) ) 8 *.*.7 ( ) ] 7 7 / 8 $.+.O.d.Q.!.R.E.E.",
"~.I.g.x.X.d.=.) 8 7 ( 8 ( 8 7 ) O.) ) 8 7 O.] 8 8 7 7 7 7 7 8 7 ) d %.*.O.] { ] #.( 8 7 8 ( ) ) ( 7 6 ( 8 $./ 5 O.+.h...,.C.j.~.",
"G.D.>.[ & < ] 6 5 > < < < 5 < 6 6 6 8 5 < < < 6 5 < < > > < < : 5 9 ) / 5 9 > < < < < < < < < > 9 < < < < < 5 , 5 6 ) , % X.F.H.",
"z Y * 5 i I = = 9 5 < < < , 9 < < < < 5 5 < : < < 5 5 < > > > 9 , < < < < 2 > > , > < < > , : 5 3 < < : < 3 , 9 7 & r g > 3 i.Y ",
"D.pX^ _ S.aXO.( ( ( ( 8 ) 8 8 ) ) ( ) ) ) d ( ( 8 ( ( 8 ) ) ( ( ( 8 8 8 O.8 ) ( 8 8 ) ) 7 8 5 } *.( $.5 O.O./ 8 +.^ K.K.^ 6 D.pX",
"z S.3 9 i.pX#./ 8 6 7 < 8 ) ( 5 7 5 9 7 ( ( { ( 6 8 ( 3 8 ] 8 5 5 5 7 8 8 ( ) ` ` / 8 6 9 7 5 ) ( ( ) 5 9 9 8 < d 6 J.J._ ^ i.D.",
"y T $ ; ; : % & % & % % % % : : : : : : o : & : : : > o o & ; & : o : : , > & ; : : , ; , : : & % : : ; % : & & * % o % * * v T ",
"z s.) / 8 : < 8 ) ) ) 8 ) 8 8 ( ) ( 6 8 ) 8 8 8 8 ) ` 7 < 8 8 ] } ) 8 8 ) ( 8 8 8 7 ( ( 8 ) ( ) ( ( 9 5 ( ( 9 ( ] ) 2 > 7 6 s.F.",
"( ) ) ) ) 5 6 8 { { %.5 ( ) 8 ` ] 8 8 7 ] *.+.8 } =.) 7 8 { 8 ( ) %.;.=.O.) 8 ) 8 5 ] } *.( 8 / ( ( 8 ) ) 8 8 *.{ 8 7 5 ( ` ` _ ",
", : : : : : > : > > : : > > , > > > : : > < , , < < , : 2 > : < , < < < 3 < : 2 < ; : < < : : ; o : > < 5 5 > < > > > : > > < : ",
"< 6 ) ( 8 1 5 8 / ( 9 1 5 8 ( 9 < 5 7 5 5 9 ) ` 5 < 6 8 6 < 7 ) ) < < < < 5 ) 7 < 6 ] ( 6 < 1 5 8 ( ( ( < < 9 ( / 7 5 ( ( 7 < 8 ",
"] ] ) 8 ( { { ( 8 d ) ( ) ( 9 8 8 ( ] ] / 8 d / ( %.8 8 8 d 8 7 8 ) ) O.*.*.7 7 *.] 8 O.8 8 / ) 6 7 6 8 ( 8 ( 7 7 ) *.] 8 O.+.O.",
") ) ) 5 5 5 { 8 1 5 5 7 ( ( 9 8 6 6 ] ( 7 8 6 7 { } 7 < 5 9 < > 8 8 +.=.=.=.8 %.=.*.8 7 ) ) ) ) ( 5 5 < 8 8 8 5 7 ( ` < 9 6 ) 8 ",
"o : : & ; % : * & o o o o o & & ; : & ; : : % % : o : % o o & % o o : > ; % : , o & : o : % & % : : o ; o : o : > : : o o o : > ",
"5 8 ) ) 8 8 { ) ) ) ) 7 8 ) ( 9 7 9 5 5 5 1 8 ( ) ) ) 8 8 ( ( ) ( ) ) ) 1 5 < < 5 7 ( ) 8 < 5 ) ) ( ( 5 ( ) 6 ( ( ) / ) 8 8 8 ) ",
"7 ( ) $.( < O./ 5 8 ) 9 / 8 5 8 8 1 8 +.*.+.` O.7 ) 8 8 ) ) 7 d 8 5 5 8 O.( ( ] 8 5 ) O.d 7 7 +.%.8 8 ) ( 8 ( 5 8 8 8 8 8 d +.O.",
"6 8 ( 5 7 < 5 9 5 7 ( 6 ) ( 8 7 9 3 8 9 8 8 ) 8 < 5 9 , 7 7 < 9 5 5 5 8 / 8 ( ) ) 8 8 9 7 9 5 ) ) ( 6 < 9 7 < < 9 7 5 < 9 5 ) 8 ",
"> > : , & % > , : < < : > < < : & > > ; o 2 > , , , , > % , , > , , : > 2 < : > > < > 2 , * , > : : % & , , , , & , * : & < * > ",
"8 8 ] ( 7 / ) ) ) 8 ) ) ] ( 6 ) ) ) ` ) 5 8 ) ` d 7 ( 8 5 / / ) d / 8 8 8 7 5 5 1 < ) ( 8 +.) ) ) ` 8 5 ) ) 5 ) ) ) ) 8 7 8 { %.",
") 7 ( ) ( 5 7 8 =.=.) 5 ( ( 8 =.{ 8 8 8 ) ) 8 8 +.=.+.5 *.{ 8 ( *.$.8 ) 8 8 ) ( O.7 / ( =.O.8 O.) ) d ) +.O./ *.{ 7 7 9 ( 8 ( ( ",
"< , 2 < 5 & 2 , 5 9 < 2 < < 5 6 5 , 2 , 5 5 2 , 9 9 < , 5 9 , < < < < 5 9 7 5 5 9 < 5 5 9 < , < 2 < < 9 9 5 < 8 9 2 > : 3 > , 3 ",
", 6 8 6 5 9 6 7 5 5 5 8 7 9 8 5 5 7 8 5 5 9 6 8 6 8 6 9 2 < 5 8 8 < 1 < ( ) < < 1 < 8 / < < < 6 8 6 6 8 7 5 9 7 7 7 ( &.g h ( k ",
"5 ( ) ( ( 8 ) O.8 s ( 8 ( ) ( 7 7 ] { O.( / / ( ) ) O.O.7 5 8 +.=.9 5 5 8 8 s 5 5 5 *.=.d 8 8 8 8 8 6 d d 5 / 7 8 8 -.(.eXT.I._."
};
